<svg xmlns="http://www.w3.org/2000/svg" viewBox="0 0 20 20"><title>logo-twitter</title><path d="M18.695,4.7a7.729,7.729,0,0,1-1.8,1.9q0,0.072.018,0.235t0.018,0.235a10.407,10.407,0,0,1-1.743,5.745,11.617,11.617,0,0,1-2.084,2.385,9.509,9.509,0,0,1-2.91,1.644,10.412,10.412,0,0,1-3.647.632A9.934,9.934,0,0,1,1,15.827q0.521,0.036.862,0.036a7.224,7.224,0,0,0,4.527-1.536,3.62,3.62,0,0,1-2.12-.741A3.77,3.77,0,0,1,2.976,11.78a2.97,2.97,0,0,0,.683.072,3.089,3.089,0,0,0,.952-0.145,3.63,3.63,0,0,1-2.066-1.265,3.554,3.554,0,0,1-.826-2.313V8.095a3.688,3.688,0,0,0,1.635.416A3.532,3.532,0,0,1,2.186,7.228a3.648,3.648,0,0,1-.431-1.734A3.97,3.97,0,0,1,2.222,3.65,10.009,10.009,0,0,0,5.527,6.36a10.179,10.179,0,0,0,4.2,1.1A3.263,3.263,0,0,1,9.6,6.631a3.528,3.528,0,0,1,1.06-2.584A3.6,3.6,0,0,1,13.269,3a3.779,3.779,0,0,1,1.455.289,3.635,3.635,0,0,1,1.186.849,6.963,6.963,0,0,0,2.3-.885,3.548,3.548,0,0,1-1.6,2.023A7.789,7.789,0,0,0,18.695,4.7h0Z" style="fill:#00aced"/></svg>