<svg xmlns="http://www.w3.org/2000/svg" viewBox="0 0 20 20"><title>logo-linkedin</title><path d="M15.313,2H4.688a2.588,2.588,0,0,0-1.9.789A2.588,2.588,0,0,0,2,4.688V15.313a2.588,2.588,0,0,0,.789,1.9,2.588,2.588,0,0,0,1.9.789H15.313A2.694,2.694,0,0,0,18,15.313V4.688a2.588,2.588,0,0,0-.789-1.9A2.588,2.588,0,0,0,15.313,2h0ZM8,15H6V8H8v7ZM7,7a1.005,1.005,0,0,1-.711-1.711A1.005,1.005,0,0,1,7.711,6.711,0.966,0.966,0,0,1,7,7H7Zm8,8H13V11a1,1,0,1,0-2,0v4H9V8h2V9.234a5.592,5.592,0,0,1,.766-0.828A1.448,1.448,0,0,1,12.75,8a2.06,2.06,0,0,1,1.594.734A2.558,2.558,0,0,1,15,10.5V15Z" style="fill:#0077b5"/></svg>